<svg width="773" height="88" viewBox="0 0 773 88" fill="none" xmlns="http://www.w3.org/2000/svg">
<path d="M376.129 62V65H379.129V62H376.129ZM376.129 28.4H379.129V25.4H376.129V28.4ZM368.161 28.4V25.4H366.493L365.613 26.8162L368.161 28.4ZM359.329 42.608L356.781 44.1918L359.329 48.2905L361.877 44.1918L359.329 42.608ZM350.497 28.4L353.045 26.8162L352.164 25.4H350.497V28.4ZM342.529 28.4V25.4H339.529V28.4H342.529ZM342.529 62H339.529V65H342.529V62ZM349.777 62V65H352.777V62H349.777ZM349.777 40.208L352.282 38.5576L346.777 30.2009V40.208H349.777ZM359.137 54.416L356.632 56.0664L357.521 57.416H359.137V54.416ZM359.329 54.416V57.416H360.945L361.834 56.0665L359.329 54.416ZM368.785 40.064H371.785V30.0579L366.28 38.4135L368.785 40.064ZM368.785 62H365.785V65H368.785V62ZM379.129 62V28.4H373.129V62H379.129ZM376.129 25.4H368.161V31.4H376.129V25.4ZM365.613 26.8162L356.781 41.0242L361.877 44.1918L370.709 29.9838L365.613 26.8162ZM361.877 41.0242L353.045 26.8162L347.949 29.9838L356.781 44.1918L361.877 41.0242ZM350.497 25.4H342.529V31.4H350.497V25.4ZM339.529 28.4V62H345.529V28.4H339.529ZM342.529 65H349.777V59H342.529V65ZM352.777 62V40.208H346.777V62H352.777ZM347.272 41.8584L356.632 56.0664L361.642 52.7656L352.282 38.5576L347.272 41.8584ZM359.137 57.416H359.329V51.416H359.137V57.416ZM361.834 56.0665L371.29 41.7145L366.28 38.4135L356.824 52.7655L361.834 56.0665ZM365.785 40.064V62H371.785V40.064H365.785ZM368.785 65H376.129V59H368.785V65ZM432.153 28.4H435.153V25.4H432.153V28.4ZM424.761 28.4V25.4H421.761V28.4H424.761ZM410.265 28.4H413.265V25.4H410.265V28.4ZM402.873 28.4V25.4H399.873V28.4H402.873ZM435.153 47.36V28.4H429.153V47.36H435.153ZM432.153 25.4H424.761V31.4H432.153V25.4ZM421.761 28.4V47.648H427.761V28.4H421.761ZM421.761 47.648C421.761 49.8281 421.203 51.0171 420.626 51.6415C420.08 52.2318 419.153 52.712 417.513 52.712V58.712C420.384 58.712 423.081 57.8242 425.032 55.7145C426.95 53.6389 427.761 50.7959 427.761 47.648H421.761ZM417.513 52.712C415.904 52.712 414.985 52.2283 414.43 51.6094C413.833 50.9424 413.265 49.679 413.265 47.408H407.265C407.265 50.609 408.065 53.4976 409.963 55.6146C411.904 57.7797 414.61 58.712 417.513 58.712V52.712ZM413.265 47.408V28.4H407.265V47.408H413.265ZM410.265 25.4H402.873V31.4H410.265V25.4ZM399.873 28.4V47.6H405.873V28.4H399.873ZM399.873 47.6C399.873 53.0925 401.415 57.6848 404.645 60.8984C407.869 64.1078 412.36 65.528 417.417 65.528V59.528C413.449 59.528 410.668 58.4282 408.877 56.6456C407.09 54.8672 405.873 51.9955 405.873 47.6H399.873ZM417.417 65.528C422.465 65.528 427 64.1247 430.275 60.8963C433.559 57.6588 435.153 53.0018 435.153 47.36H429.153C429.153 51.8942 427.891 54.8212 426.063 56.6237C424.225 58.4353 421.393 59.528 417.417 59.528V65.528ZM487.922 62V65H493.609L490.398 60.3063L487.922 62ZM479.714 50L478.671 47.1871L475.069 48.5228L477.238 51.6937L479.714 50ZM458.882 28.4V25.4H455.882V28.4H458.882ZM458.882 62H455.882V65H458.882V62ZM466.274 62V65H469.274V62H466.274ZM466.274 51.248V48.248H463.274V51.248H466.274ZM472.082 51.248L474.575 49.5788L473.684 48.248H472.082V51.248ZM479.282 62L476.789 63.6692L477.68 65H479.282V62ZM466.274 44.72H463.274V47.72H466.274V44.72ZM466.274 35.072V32.072H463.274V35.072H466.274ZM490.398 60.3063L482.19 48.3063L477.238 51.6937L485.446 63.6937L490.398 60.3063ZM480.757 52.8129C483.341 51.8546 485.663 50.2882 487.336 48.005C489.02 45.706 489.914 42.8597 489.914 39.584H483.914C483.914 41.7323 483.344 43.302 482.496 44.459C481.637 45.6318 480.359 46.5614 478.671 47.1871L480.757 52.8129ZM489.914 39.584V39.488H483.914V39.584H489.914ZM489.914 39.488C489.914 35.3045 488.45 31.6575 485.525 29.0954C482.651 26.5776 478.703 25.4 474.242 25.4V31.4C477.701 31.4 480.089 32.3104 481.571 33.6086C483.002 34.8625 483.914 36.7595 483.914 39.488H489.914ZM474.242 25.4H458.882V31.4H474.242V25.4ZM455.882 28.4V62H461.882V28.4H455.882ZM458.882 65H466.274V59H458.882V65ZM469.274 62V51.248H463.274V62H469.274ZM466.274 54.248H472.082V48.248H466.274V54.248ZM469.589 52.9172L476.789 63.6692L481.775 60.3308L474.575 49.5788L469.589 52.9172ZM479.282 65H487.922V59H479.282V65ZM476.426 39.968C476.426 40.6092 476.219 40.9317 475.984 41.1352C475.702 41.3786 475.05 41.72 473.762 41.72V47.72C476.074 47.72 478.254 47.1014 479.904 45.6768C481.601 44.2123 482.426 42.1588 482.426 39.968H476.426ZM473.762 41.72H466.274V47.72H473.762V41.72ZM469.274 44.72V35.072H463.274V44.72H469.274ZM466.274 38.072H473.618V32.072H466.274V38.072ZM473.618 38.072C475.019 38.072 475.71 38.3959 475.994 38.6239C476.177 38.7702 476.426 39.0468 476.426 39.872H482.426C482.426 37.5292 481.571 35.4058 479.75 33.9441C478.03 32.5641 475.817 32.072 473.618 32.072V38.072ZM476.426 39.872V39.968H482.426V39.872H476.426ZM545.506 62V65H550.042L548.266 60.8253L545.506 62ZM531.106 28.16L533.866 26.9853L533.089 25.16H531.106V28.16ZM524.29 28.16V25.16H522.306L521.529 26.9853L524.29 28.16ZM509.89 62L507.129 60.8253L505.353 65H509.89V62ZM517.426 62V65H519.442L520.204 63.1325L517.426 62ZM520.498 54.464V51.464H518.481L517.719 53.3315L520.498 54.464ZM534.706 54.464L537.484 53.3315L536.722 51.464H534.706V54.464ZM537.778 62L534.999 63.1325L535.761 65H537.778V62ZM532.066 47.936V50.936H536.537L534.842 46.7987L532.066 47.936ZM523.138 47.936L520.361 46.7987L518.666 50.936H523.138V47.936ZM527.602 37.04L530.378 35.9027L527.602 29.1267L524.825 35.9027L527.602 37.04ZM548.266 60.8253L533.866 26.9853L528.345 29.3347L542.745 63.1747L548.266 60.8253ZM531.106 25.16H524.29V31.16H531.106V25.16ZM521.529 26.9853L507.129 60.8253L512.65 63.1747L527.05 29.3347L521.529 26.9853ZM509.89 65H517.426V59H509.89V65ZM520.204 63.1325L523.276 55.5965L517.719 53.3315L514.647 60.8675L520.204 63.1325ZM520.498 57.464H534.706V51.464H520.498V57.464ZM531.927 55.5965L534.999 63.1325L540.556 60.8675L537.484 53.3315L531.927 55.5965ZM537.778 65H545.506V59H537.778V65ZM532.066 44.936H523.138V50.936H532.066V44.936ZM525.914 49.0733L530.378 38.1773L524.825 35.9027L520.361 46.7987L525.914 49.0733ZM524.825 38.1773L529.289 49.0733L534.842 46.7987L530.378 35.9027L524.825 38.1773ZM600.467 62V65H606.417L602.88 60.2163L600.467 62ZM586.163 42.656L583.999 40.5789L582.247 42.4049L583.751 44.4397L586.163 42.656ZM599.843 28.4L602.008 30.4771L606.88 25.4H599.843V28.4ZM590.915 28.4V25.4H589.607L588.716 26.3592L590.915 28.4ZM577.283 43.088H574.283V50.7304L579.482 45.1288L577.283 43.088ZM577.283 28.4H580.283V25.4H577.283V28.4ZM569.891 28.4V25.4H566.891V28.4H569.891ZM569.891 62H566.891V65H569.891V62ZM577.283 62V65H580.283V62H577.283ZM577.283 51.728L575.124 49.6456L574.283 50.5172V51.728H577.283ZM581.171 47.696L583.597 45.93L581.493 43.0409L579.012 45.6136L581.171 47.696ZM591.587 62L589.162 63.766L590.061 65H591.587V62ZM602.88 60.2163L588.576 40.8723L583.751 44.4397L598.055 63.7837L602.88 60.2163ZM588.328 44.7331L602.008 30.4771L597.679 26.3229L583.999 40.5789L588.328 44.7331ZM599.843 25.4H590.915V31.4H599.843V25.4ZM588.716 26.3592L575.084 41.0472L579.482 45.1288L593.114 30.4408L588.716 26.3592ZM580.283 43.088V28.4H574.283V43.088H580.283ZM577.283 25.4H569.891V31.4H577.283V25.4ZM566.891 28.4V62H572.891V28.4H566.891ZM569.891 65H577.283V59H569.891V65ZM580.283 62V51.728H574.283V62H580.283ZM579.443 53.8104L583.331 49.7784L579.012 45.6136L575.124 49.6456L579.443 53.8104ZM578.746 49.462L589.162 63.766L594.013 60.234L583.597 45.93L578.746 49.462ZM591.587 65H600.467V59H591.587V65ZM655.952 62V65H660.489L658.713 60.8253L655.952 62ZM641.552 28.16L644.313 26.9853L643.536 25.16H641.552V28.16ZM634.736 28.16V25.16H632.753L631.976 26.9853L634.736 28.16ZM620.336 62L617.576 60.8253L615.799 65H620.336V62ZM627.872 62V65H629.889L630.65 63.1325L627.872 62ZM630.944 54.464V51.464H628.928L628.166 53.3315L630.944 54.464ZM645.152 54.464L647.93 53.3315L647.169 51.464H645.152V54.464ZM648.224 62L645.446 63.1325L646.208 65H648.224V62ZM642.512 47.936V50.936H646.983L645.288 46.7987L642.512 47.936ZM633.584 47.936L630.808 46.7987L629.113 50.936H633.584V47.936ZM638.048 37.04L640.824 35.9027L638.048 29.1267L635.272 35.9027L638.048 37.04ZM658.713 60.8253L644.313 26.9853L638.792 29.3347L653.192 63.1747L658.713 60.8253ZM641.552 25.16H634.736V31.16H641.552V25.16ZM631.976 26.9853L617.576 60.8253L623.097 63.1747L637.497 29.3347L631.976 26.9853ZM620.336 65H627.872V59H620.336V65ZM630.65 63.1325L633.722 55.5965L628.166 53.3315L625.094 60.8675L630.65 63.1325ZM630.944 57.464H645.152V51.464H630.944V57.464ZM642.374 55.5965L645.446 63.1325L651.002 60.8675L647.93 53.3315L642.374 55.5965ZM648.224 65H655.952V59H648.224V65ZM642.512 44.936H633.584V50.936H642.512V44.936ZM636.36 49.0733L640.824 38.1773L635.272 35.9027L630.808 46.7987L636.36 49.0733ZM635.272 38.1773L639.736 49.0733L645.288 46.7987L640.824 35.9027L635.272 38.1773ZM713.938 62V65H716.938V62H713.938ZM713.938 28.4H716.938V25.4H713.938V28.4ZM705.97 28.4V25.4H704.303L703.422 26.8162L705.97 28.4ZM697.138 42.608L694.59 44.1918L697.138 48.2905L699.686 44.1918L697.138 42.608ZM688.306 28.4L690.854 26.8162L689.974 25.4H688.306V28.4ZM680.338 28.4V25.4H677.338V28.4H680.338ZM680.338 62H677.338V65H680.338V62ZM687.586 62V65H690.586V62H687.586ZM687.586 40.208L690.092 38.5576L684.586 30.2009V40.208H687.586ZM696.946 54.416L694.441 56.0664L695.33 57.416H696.946V54.416ZM697.138 54.416V57.416H698.754L699.643 56.0665L697.138 54.416ZM706.594 40.064H709.594V30.0579L704.089 38.4135L706.594 40.064ZM706.594 62H703.594V65H706.594V62ZM716.938 62V28.4H710.938V62H716.938ZM713.938 25.4H705.97V31.4H713.938V25.4ZM703.422 26.8162L694.59 41.0242L699.686 44.1918L708.518 29.9838L703.422 26.8162ZM699.686 41.0242L690.854 26.8162L685.758 29.9838L694.59 44.1918L699.686 41.0242ZM688.306 25.4H680.338V31.4H688.306V25.4ZM677.338 28.4V62H683.338V28.4H677.338ZM680.338 65H687.586V59H680.338V65ZM690.586 62V40.208H684.586V62H690.586ZM685.081 41.8584L694.441 56.0664L699.452 52.7656L690.092 38.5576L685.081 41.8584ZM696.946 57.416H697.138V51.416H696.946V57.416ZM699.643 56.0665L709.099 41.7145L704.089 38.4135L694.633 52.7655L699.643 56.0665ZM703.594 40.064V62H709.594V40.064H703.594ZM706.594 65H713.938V59H706.594V65ZM748.938 62V65H751.938V62H748.938ZM748.938 28.4H751.938V25.4H748.938V28.4ZM741.546 28.4V25.4H738.546V28.4H741.546ZM741.546 62H738.546V65H741.546V62ZM751.938 62V28.4H745.938V62H751.938ZM748.938 25.4H741.546V31.4H748.938V25.4ZM738.546 28.4V62H744.546V28.4H738.546ZM741.546 65H748.938V59H741.546V65Z" fill="white"/>
<path d="M29.6601 39.912C29.6601 34.2 24.9561 29.496 19.2441 29.496H0.428123V62.952H19.5801C25.2921 62.952 29.9961 58.296 29.9961 52.584C29.9961 50.088 29.0841 47.832 27.6441 46.056C28.8921 44.328 29.6601 42.216 29.6601 39.912ZM8.58812 37.704H19.2441C20.4441 37.704 21.4521 38.712 21.4521 39.912C21.4521 41.16 20.4441 42.168 19.2441 42.168H8.58812V37.704ZM19.5801 54.792H8.58812V50.328H19.4841C20.7321 50.328 21.7881 51.336 21.7881 52.584C21.7881 53.784 20.7801 54.792 19.5801 54.792ZM61.8831 63.048H70.7151L57.7551 29.496H49.1151L36.2031 63.048H45.0351L46.6191 58.92H60.2991L61.8831 63.048ZM49.7391 50.76L53.4351 41.064L57.1791 50.76H49.7391ZM139.443 63.048H148.275L135.315 29.496H126.675L113.763 63.048H122.595L124.179 58.92H137.859L139.443 63.048ZM127.299 50.76L130.995 41.064L134.739 50.76H127.299ZM164.963 29.496H156.803V63.048H183.539V54.84H164.963V29.496ZM193.141 59.736C193.141 59.16 193.237 58.584 193.477 58.008C193.717 57.48 194.005 57 194.437 56.616C194.821 56.184 195.301 55.896 195.829 55.656C196.357 55.464 196.933 55.32 197.557 55.32C198.181 55.32 198.757 55.464 199.285 55.656C199.813 55.896 200.293 56.184 200.725 56.616C201.109 57 201.397 57.48 201.637 58.008C201.877 58.584 201.973 59.16 201.973 59.736C201.973 60.36 201.877 60.936 201.637 61.464C201.397 62.04 201.109 62.472 200.725 62.904C200.293 63.288 199.813 63.624 199.285 63.816C198.757 64.056 198.181 64.152 197.557 64.152C196.933 64.152 196.357 64.056 195.829 63.816C195.301 63.624 194.821 63.288 194.437 62.904C194.005 62.472 193.717 62.04 193.477 61.464C193.237 60.936 193.141 60.36 193.141 59.736Z" fill="white"/>
<path d="M85.8466 49.32L98.9506 29.448H107.927V62.952H99.7666V43.08L86.6146 63.048H77.6866V29.592H85.8466V49.32Z" fill="white"/>
<rect x="262.557" y="28.7279" width="40" height="4" transform="rotate(45 262.557 28.7279)" fill="#FBE739"/>
<rect x="290.842" y="31.5564" width="40" height="4" transform="rotate(135 290.842 31.5564)" fill="#FBE739"/>
</svg>
